<svg width="708" height="838" viewBox="0 0 708 838" fill="none" xmlns="http://www.w3.org/2000/svg">
<rect width="708" height="838" rx="37" fill="#374D63"/>
<path d="M0 37C0 16.5655 16.5655 0 37 0H671C691.435 0 708 16.5655 708 37V104H0V37Z" fill="#F3D44B"/>
<path d="M177.54 73L172.138 63.195H170.621V73H164.294V47.026H174.913C176.96 47.026 178.699 47.3837 180.13 48.099C181.585 48.8143 182.671 49.801 183.386 51.059C184.101 52.2923 184.459 53.6737 184.459 55.203C184.459 56.9297 183.966 58.4713 182.979 59.828C182.017 61.1847 180.586 62.1467 178.687 62.714L184.681 73H177.54ZM170.621 58.718H174.543C175.702 58.718 176.566 58.4343 177.133 57.867C177.725 57.2997 178.021 56.498 178.021 55.462C178.021 54.4753 177.725 53.6983 177.133 53.131C176.566 52.5637 175.702 52.28 174.543 52.28H170.621V58.718ZM194.758 52.095V57.349H203.231V62.233H194.758V67.931H204.341V73H188.431V47.026H204.341V52.095H194.758ZM207.375 59.976C207.375 57.4107 207.93 55.129 209.04 53.131C210.15 51.1083 211.692 49.542 213.665 48.432C215.663 47.2973 217.92 46.73 220.436 46.73C223.52 46.73 226.159 47.544 228.354 49.172C230.55 50.8 232.017 53.02 232.757 55.832H225.801C225.283 54.7467 224.543 53.9203 223.581 53.353C222.644 52.7857 221.571 52.502 220.362 52.502C218.414 52.502 216.835 53.1803 215.626 54.537C214.418 55.8937 213.813 57.7067 213.813 59.976C213.813 62.2453 214.418 64.0583 215.626 65.415C216.835 66.7717 218.414 67.45 220.362 67.45C221.571 67.45 222.644 67.1663 223.581 66.599C224.543 66.0317 225.283 65.2053 225.801 64.12H232.757C232.017 66.932 230.55 69.152 228.354 70.78C226.159 72.3833 223.52 73.185 220.436 73.185C217.92 73.185 215.663 72.63 213.665 71.52C211.692 70.3853 210.15 68.819 209.04 66.821C207.93 64.823 207.375 62.5413 207.375 59.976ZM242.959 52.095V57.349H251.432V62.233H242.959V67.931H252.542V73H236.632V47.026H252.542V52.095H242.959ZM279.885 73H273.558L262.976 56.979V73H256.649V47.026H262.976L273.558 63.121V47.026H279.885V73ZM303.157 47.026V52.095H296.275V73H289.948V52.095H283.066V47.026H303.157ZM330.342 68.412H320.648L319.094 73H312.471L321.869 47.026H329.195L338.593 73H331.896L330.342 68.412ZM328.714 63.528L325.495 54.019L322.313 63.528H328.714ZM354.699 73L349.297 63.195H347.78V73H341.453V47.026H352.072C354.12 47.026 355.859 47.3837 357.289 48.099C358.745 48.8143 359.83 49.801 360.545 51.059C361.261 52.2923 361.618 53.6737 361.618 55.203C361.618 56.9297 361.125 58.4713 360.138 59.828C359.176 61.1847 357.746 62.1467 355.846 62.714L361.84 73H354.699ZM347.78 58.718H351.702C352.862 58.718 353.725 58.4343 354.292 57.867C354.884 57.2997 355.18 56.498 355.18 55.462C355.18 54.4753 354.884 53.6983 354.292 53.131C353.725 52.5637 352.862 52.28 351.702 52.28H347.78V58.718ZM378.836 73L373.434 63.195H371.917V73H365.59V47.026H376.209C378.256 47.026 379.995 47.3837 381.426 48.099C382.881 48.8143 383.967 49.801 384.682 51.059C385.397 52.2923 385.755 53.6737 385.755 55.203C385.755 56.9297 385.262 58.4713 384.275 59.828C383.313 61.1847 381.882 62.1467 379.983 62.714L385.977 73H378.836ZM371.917 58.718H375.839C376.998 58.718 377.862 58.4343 378.429 57.867C379.021 57.2997 379.317 56.498 379.317 55.462C379.317 54.4753 379.021 53.6983 378.429 53.131C377.862 52.5637 376.998 52.28 375.839 52.28H371.917V58.718ZM396.054 47.026V73H389.727V47.026H396.054ZM425.022 47.026L415.809 73H407.891L398.678 47.026H405.412L411.85 66.636L418.325 47.026H425.022ZM443.835 68.412H434.141L432.587 73H425.964L435.362 47.026H442.688L452.086 73H445.389L443.835 68.412ZM442.207 63.528L438.988 54.019L435.806 63.528H442.207ZM461.273 68.116H469.561V73H454.946V47.026H461.273V68.116ZM481.977 73.259C480.078 73.259 478.376 72.9507 476.871 72.334C475.366 71.7173 474.158 70.8047 473.245 69.596C472.357 68.3873 471.888 66.932 471.839 65.23H478.573C478.672 66.192 479.005 66.932 479.572 67.45C480.139 67.9433 480.879 68.19 481.792 68.19C482.729 68.19 483.469 67.9803 484.012 67.561C484.555 67.117 484.826 66.5127 484.826 65.748C484.826 65.1067 484.604 64.5763 484.16 64.157C483.741 63.7377 483.21 63.3923 482.569 63.121C481.952 62.8497 481.064 62.5413 479.905 62.196C478.228 61.678 476.859 61.16 475.798 60.642C474.737 60.124 473.825 59.3593 473.06 58.348C472.295 57.3367 471.913 56.017 471.913 54.389C471.913 51.9717 472.789 50.0847 474.54 48.728C476.291 47.3467 478.573 46.656 481.385 46.656C484.246 46.656 486.553 47.3467 488.304 48.728C490.055 50.0847 490.993 51.984 491.116 54.426H484.271C484.222 53.5873 483.913 52.9337 483.346 52.465C482.779 51.9717 482.051 51.725 481.163 51.725C480.398 51.725 479.782 51.9347 479.313 52.354C478.844 52.7487 478.61 53.3283 478.61 54.093C478.61 54.9317 479.005 55.5853 479.794 56.054C480.583 56.5227 481.817 57.0283 483.494 57.571C485.171 58.1383 486.528 58.681 487.564 59.199C488.625 59.717 489.537 60.4693 490.302 61.456C491.067 62.4427 491.449 63.713 491.449 65.267C491.449 66.747 491.067 68.0913 490.302 69.3C489.562 70.5087 488.477 71.4707 487.046 72.186C485.615 72.9013 483.926 73.259 481.977 73.259ZM530.823 58.015V60.864H503.702V58.015H530.823ZM545.081 60.087C545.081 57.571 545.649 55.314 546.783 53.316C547.918 51.2933 549.46 49.7147 551.408 48.58C553.382 47.4453 555.565 46.878 557.957 46.878C560.769 46.878 563.224 47.5563 565.32 48.913C567.417 50.2697 568.946 52.1937 569.908 54.685H565.875C565.16 53.131 564.124 51.9347 562.767 51.096C561.435 50.2573 559.832 49.838 557.957 49.838C556.157 49.838 554.541 50.2573 553.11 51.096C551.68 51.9347 550.557 53.131 549.743 54.685C548.929 56.2143 548.522 58.015 548.522 60.087C548.522 62.1343 548.929 63.935 549.743 65.489C550.557 67.0183 551.68 68.2023 553.11 69.041C554.541 69.8797 556.157 70.299 557.957 70.299C559.832 70.299 561.435 69.892 562.767 69.078C564.124 68.2393 565.16 67.043 565.875 65.489H569.908C568.946 67.9557 567.417 69.8673 565.32 71.224C563.224 72.556 560.769 73.222 557.957 73.222C555.565 73.222 553.382 72.667 551.408 71.557C549.46 70.4223 547.918 68.856 546.783 66.858C545.649 64.86 545.081 62.603 545.081 60.087ZM607.332 47.211L599.858 73H596.084L590.09 52.243L583.874 73L580.137 73.037L572.922 47.211H576.511L582.135 69.078L588.351 47.211H592.125L598.045 69.004L603.706 47.211H607.332ZM623.93 59.717C624.867 59.865 625.718 60.2473 626.483 60.864C627.272 61.4807 627.889 62.2453 628.333 63.158C628.802 64.0707 629.036 65.045 629.036 66.081C629.036 67.3883 628.703 68.5723 628.037 69.633C627.371 70.669 626.397 71.4953 625.114 72.112C623.856 72.704 622.364 73 620.637 73H611.017V47.211H620.267C622.018 47.211 623.511 47.507 624.744 48.099C625.977 48.6663 626.902 49.4433 627.519 50.43C628.136 51.4167 628.444 52.5267 628.444 53.76C628.444 55.2893 628.025 56.5597 627.186 57.571C626.372 58.5577 625.287 59.273 623.93 59.717ZM614.384 58.348H620.045C621.624 58.348 622.845 57.978 623.708 57.238C624.571 56.498 625.003 55.4743 625.003 54.167C625.003 52.8597 624.571 51.836 623.708 51.096C622.845 50.356 621.599 49.986 619.971 49.986H614.384V58.348ZM620.341 70.225C622.018 70.225 623.326 69.8303 624.263 69.041C625.2 68.2517 625.669 67.154 625.669 65.748C625.669 64.3173 625.176 63.195 624.189 62.381C623.202 61.5423 621.883 61.123 620.23 61.123H614.384V70.225H620.341Z" fill="#374D63"/>
<path d="M120.158 61.8616C121.451 62.1318 122.799 61.8899 123.918 61.1869C125.037 60.4839 125.839 59.3744 126.157 58.0919V58.0887C126.481 56.7744 126.27 55.3851 125.571 54.2262C124.871 53.0674 123.739 52.234 122.425 51.9094L107.917 48.3172L91.5696 26.7134L84.5184 26L93.8111 46.8905L79.7055 45.4669L72.3753 33.327L68 34.3099L71.9314 51.8111L120.158 61.8616ZM69.9308 70.4347H127V76.7757H69.9308V70.4347Z" fill="#374D63"/>
</svg>
