<svg width="1299" height="658" viewBox="0 0 1299 658" fill="none" xmlns="http://www.w3.org/2000/svg">
<path d="M-2.65496e-05 50.6152C6.10467e-05 22.6613 22.6612 6.00446e-05 50.6152 -2.21246e-06L458.005 -2.002e-05C458.448 40.4559 490.485 73.1103 529.939 73.1103C569.394 73.1103 601.43 40.4558 601.873 -2.63087e-05L1247.6 -5.45344e-05C1275.55 -5.57563e-05 1298.22 22.6612 1298.22 50.6152L1298.22 607.385C1298.22 635.339 1275.55 658 1247.6 658L601.873 658C601.876 657.717 601.879 657.433 601.879 657.149C601.879 616.302 569.67 583.188 529.939 583.188C490.208 583.188 458 616.302 458 657.149C458 657.433 458.002 657.717 458.005 658L50.6152 658C22.6613 658 8.13369e-05 635.339 -2.21246e-06 607.385L-2.65496e-05 50.6152Z" fill="#FCFCFC"/>
<mask id="mask0_321_8243" style="mask-type:alpha" maskUnits="userSpaceOnUse" x="0" y="0" width="63" height="658">
<path d="M50.6154 658C22.6613 658 -9.90556e-07 635.339 -2.21247e-06 607.385L-2.65496e-05 50.6154C-2.77715e-05 22.6613 22.6612 6.00446e-05 50.6153 5.88227e-05L62.9272 5.82845e-05L62.9272 658L50.6154 658Z" fill="#FCFCFC"/>
</mask>
<g mask="url(#mask0_321_8243)">
<rect width="19.6647" height="84.7138" transform="matrix(0.294686 -0.955594 0.899316 0.437299 -9.16357 231.191)" fill="#7FB5C3"/>
<rect width="19.6647" height="84.7138" transform="matrix(0.294686 -0.955594 0.899316 0.437299 -9.16357 453.771)" fill="#7FB5C3"/>
<rect width="19.6647" height="84.7138" transform="matrix(0.294686 -0.955594 0.899316 0.437299 -9.16357 9.08887)" fill="#7FB5C3"/>
<rect width="19.6647" height="84.7138" transform="matrix(0.294686 -0.955594 0.899316 0.437299 -9.16357 564.603)" fill="#7FB5C3"/>
<rect width="19.6647" height="84.7138" transform="matrix(0.294686 -0.955594 0.899316 0.437299 -9.16357 119.921)" fill="#7FB5C3"/>
<rect width="19.6647" height="84.7138" transform="matrix(0.294686 -0.955594 0.899316 0.437299 -9.16357 342.5)" fill="#7FB5C3"/>
<rect width="19.6647" height="84.7138" transform="matrix(0.294686 -0.955594 0.899316 0.437299 -9.16357 620.476)" fill="#7FB5C3"/>
<rect width="19.6647" height="84.7138" transform="matrix(0.294686 -0.955594 0.899316 0.437299 -9.16357 175.794)" fill="#7FB5C3"/>
<rect width="19.6647" height="84.7138" transform="matrix(0.294686 -0.955594 0.899316 0.437299 -9.16357 398.374)" fill="#7FB5C3"/>
<rect width="19.6647" height="84.7138" transform="matrix(0.294686 -0.955594 0.899316 0.437299 -9.16357 509.205)" fill="#7FB5C3"/>
<rect width="19.6647" height="84.7138" transform="matrix(0.294686 -0.955594 0.899316 0.437299 -9.16357 64.5229)" fill="#7FB5C3"/>
<rect width="19.6647" height="84.7138" transform="matrix(0.294686 -0.955594 0.899316 0.437299 -9.16357 287.103)" fill="#7FB5C3"/>
</g>
<mask id="mask1_321_8243" style="mask-type:alpha" maskUnits="userSpaceOnUse" x="1235" y="0" width="64" height="658">
<path d="M1247.6 -2.21247e-06C1275.56 -9.90556e-07 1298.22 22.6613 1298.22 50.6154L1298.22 607.385C1298.22 635.339 1275.56 658 1247.6 658L1235.29 658L1235.29 -2.75064e-06L1247.6 -2.21247e-06Z" fill="#FCFCFC"/>
</mask>
<g mask="url(#mask1_321_8243)">
<rect width="19.6647" height="84.7138" transform="matrix(-0.294686 0.955594 -0.899316 -0.437299 1307.38 426.809)" fill="#7FB5C3"/>
<rect width="19.6647" height="84.7138" transform="matrix(-0.294686 0.955594 -0.899316 -0.437299 1307.38 204.229)" fill="#7FB5C3"/>
<rect width="19.6647" height="84.7138" transform="matrix(-0.294686 0.955594 -0.899316 -0.437299 1307.38 648.911)" fill="#7FB5C3"/>
<rect width="19.6647" height="84.7138" transform="matrix(-0.294686 0.955594 -0.899316 -0.437299 1307.38 93.3975)" fill="#7FB5C3"/>
<rect width="19.6647" height="84.7138" transform="matrix(-0.294686 0.955594 -0.899316 -0.437299 1307.38 538.08)" fill="#7FB5C3"/>
<rect width="19.6647" height="84.7138" transform="matrix(-0.294686 0.955594 -0.899316 -0.437299 1307.38 315.5)" fill="#7FB5C3"/>
<rect width="19.6647" height="84.7138" transform="matrix(-0.294686 0.955594 -0.899316 -0.437299 1307.38 37.5239)" fill="#7FB5C3"/>
<rect width="19.6647" height="84.7138" transform="matrix(-0.294686 0.955594 -0.899316 -0.437299 1307.38 482.206)" fill="#7FB5C3"/>
<rect width="19.6647" height="84.7138" transform="matrix(-0.294686 0.955594 -0.899316 -0.437299 1307.38 259.626)" fill="#7FB5C3"/>
<rect width="19.6647" height="84.7138" transform="matrix(-0.294686 0.955594 -0.899316 -0.437299 1307.38 148.795)" fill="#7FB5C3"/>
<rect width="19.6647" height="84.7138" transform="matrix(-0.294686 0.955594 -0.899316 -0.437299 1307.38 593.477)" fill="#7FB5C3"/>
<rect width="19.6647" height="84.7138" transform="matrix(-0.294686 0.955594 -0.899316 -0.437299 1307.38 370.897)" fill="#7FB5C3"/>
</g>
<path d="M535 72.5029L535 584.129" stroke="#82909E" stroke-opacity="0.71" stroke-width="5.47193" stroke-dasharray="10.94 10.94"/>
<path d="M112.576 321.51V315.863H123.126V347.775H116.822V321.51H112.576ZM148.616 341.953H136.447L134.433 347.775H127.998L138.986 317.176H146.121L157.109 347.775H150.63L148.616 341.953ZM146.953 337.05L142.532 324.268L138.11 337.05H146.953Z" fill="#374D63"/>
<path d="M132.888 428.588V433.535H120.149V441.371H129.911V446.23H120.149V459.144H114.021V428.588H132.888ZM143.362 428.588V459.144H137.233V428.588H143.362ZM165.176 459.144L158.435 447.237H155.546V459.144H149.417V428.588H160.886C163.25 428.588 165.264 429.011 166.927 429.858C168.591 430.675 169.831 431.798 170.648 433.228C171.495 434.629 171.918 436.205 171.918 437.956C171.918 439.97 171.334 441.794 170.167 443.428C168.999 445.033 167.263 446.142 164.957 446.755L172.268 459.144H165.176ZM155.546 442.64H160.667C162.331 442.64 163.571 442.246 164.388 441.458C165.205 440.641 165.614 439.518 165.614 438.088C165.614 436.687 165.205 435.607 164.388 434.848C163.571 434.06 162.331 433.666 160.667 433.666H155.546V442.64ZM188.011 459.45C185.88 459.45 183.954 459.085 182.232 458.356C180.54 457.626 179.197 456.575 178.205 455.204C177.213 453.832 176.702 452.212 176.673 450.345H183.239C183.327 451.6 183.764 452.592 184.552 453.321C185.37 454.051 186.478 454.416 187.879 454.416C189.309 454.416 190.433 454.08 191.25 453.409C192.067 452.709 192.476 451.804 192.476 450.695C192.476 449.79 192.198 449.046 191.644 448.462C191.089 447.879 190.389 447.426 189.543 447.105C188.726 446.755 187.587 446.376 186.128 445.967C184.144 445.383 182.524 444.814 181.269 444.26C180.043 443.676 178.978 442.815 178.074 441.677C177.198 440.51 176.76 438.963 176.76 437.037C176.76 435.228 177.213 433.652 178.117 432.309C179.022 430.967 180.292 429.945 181.926 429.245C183.56 428.515 185.428 428.151 187.529 428.151C190.681 428.151 193.234 428.924 195.19 430.471C197.174 431.988 198.269 434.119 198.473 436.862H191.732C191.673 435.811 191.221 434.95 190.374 434.279C189.557 433.579 188.463 433.228 187.091 433.228C185.895 433.228 184.932 433.535 184.202 434.148C183.502 434.761 183.152 435.651 183.152 436.818C183.152 437.635 183.414 438.321 183.94 438.876C184.494 439.401 185.165 439.839 185.953 440.189C186.77 440.51 187.908 440.889 189.368 441.327C191.352 441.911 192.972 442.494 194.227 443.078C195.482 443.662 196.561 444.537 197.466 445.704C198.371 446.872 198.823 448.404 198.823 450.301C198.823 451.935 198.4 453.453 197.554 454.854C196.707 456.254 195.467 457.378 193.833 458.224C192.198 459.041 190.258 459.45 188.011 459.45ZM224.93 428.588V433.535H216.788V459.144H210.659V433.535H202.517V428.588H224.93Z" fill="#374D63"/>
<path d="M120.981 297.23C119.449 297.23 118.07 296.967 116.844 296.442C115.618 295.895 114.655 295.129 113.955 294.144C113.254 293.159 112.904 292.01 112.904 290.696H116.91C116.997 291.681 117.38 292.491 118.059 293.126C118.759 293.761 119.733 294.078 120.981 294.078C122.272 294.078 123.279 293.772 124.001 293.159C124.724 292.524 125.085 291.714 125.085 290.729C125.085 289.963 124.855 289.339 124.395 288.858C123.958 288.376 123.399 288.004 122.721 287.741C122.064 287.479 121.145 287.194 119.963 286.888C118.475 286.494 117.26 286.1 116.319 285.706C115.399 285.29 114.611 284.655 113.955 283.802C113.298 282.948 112.97 281.81 112.97 280.387C112.97 279.074 113.298 277.925 113.955 276.94C114.611 275.955 115.531 275.2 116.713 274.675C117.895 274.149 119.263 273.887 120.817 273.887C123.027 273.887 124.833 274.445 126.234 275.561C127.657 276.655 128.445 278.166 128.598 280.092H124.461C124.395 279.26 124.001 278.549 123.279 277.958C122.557 277.367 121.605 277.071 120.423 277.071C119.35 277.071 118.475 277.345 117.796 277.892C117.118 278.439 116.778 279.227 116.778 280.256C116.778 280.956 116.986 281.536 117.402 281.996C117.84 282.434 118.387 282.784 119.044 283.047C119.7 283.309 120.598 283.594 121.736 283.9C123.246 284.316 124.472 284.732 125.413 285.148C126.376 285.564 127.186 286.209 127.843 287.085C128.521 287.938 128.86 289.088 128.86 290.532C128.86 291.692 128.543 292.787 127.908 293.815C127.295 294.844 126.387 295.676 125.183 296.311C124.001 296.923 122.6 297.23 120.981 297.23ZM149.857 287.512C149.857 288.19 149.813 288.803 149.725 289.35H135.903C136.013 290.795 136.549 291.955 137.512 292.83C138.475 293.706 139.657 294.144 141.058 294.144C143.072 294.144 144.494 293.301 145.326 291.616H149.364C148.817 293.279 147.821 294.647 146.377 295.72C144.954 296.77 143.181 297.295 141.058 297.295C139.329 297.295 137.775 296.912 136.396 296.146C135.039 295.358 133.966 294.264 133.178 292.863C132.412 291.441 132.029 289.799 132.029 287.938C132.029 286.078 132.401 284.447 133.145 283.047C133.911 281.624 134.973 280.529 136.33 279.763C137.709 278.997 139.285 278.614 141.058 278.614C142.765 278.614 144.286 278.986 145.621 279.731C146.957 280.475 147.996 281.525 148.74 282.882C149.485 284.218 149.857 285.761 149.857 287.512ZM145.95 286.33C145.928 284.951 145.435 283.845 144.472 283.014C143.509 282.182 142.316 281.766 140.894 281.766C139.602 281.766 138.497 282.182 137.578 283.014C136.658 283.824 136.111 284.929 135.936 286.33H145.95ZM152.292 287.873C152.292 286.056 152.664 284.447 153.409 283.047C154.175 281.646 155.203 280.562 156.495 279.796C157.808 279.008 159.253 278.614 160.829 278.614C162.251 278.614 163.488 278.899 164.539 279.468C165.611 280.015 166.465 280.705 167.099 281.536V278.91H170.875V297H167.099V294.308C166.465 295.161 165.6 295.873 164.506 296.442C163.411 297.011 162.164 297.295 160.763 297.295C159.209 297.295 157.786 296.902 156.495 296.114C155.203 295.304 154.175 294.187 153.409 292.765C152.664 291.32 152.292 289.689 152.292 287.873ZM167.099 287.938C167.099 286.691 166.837 285.607 166.311 284.688C165.808 283.769 165.141 283.068 164.309 282.587C163.477 282.105 162.58 281.865 161.617 281.865C160.654 281.865 159.756 282.105 158.924 282.587C158.093 283.047 157.414 283.736 156.889 284.655C156.385 285.553 156.134 286.625 156.134 287.873C156.134 289.12 156.385 290.215 156.889 291.156C157.414 292.097 158.093 292.819 158.924 293.323C159.778 293.804 160.675 294.045 161.617 294.045C162.58 294.045 163.477 293.804 164.309 293.323C165.141 292.841 165.808 292.141 166.311 291.222C166.837 290.28 167.099 289.186 167.099 287.938ZM180.158 281.963V291.977C180.158 292.655 180.311 293.148 180.617 293.454C180.946 293.739 181.493 293.881 182.259 293.881H184.557V297H181.602C179.917 297 178.626 296.606 177.728 295.818C176.831 295.03 176.382 293.75 176.382 291.977V281.963H174.248V278.91H176.382V274.412H180.158V278.91H184.557V281.963H180.158Z" fill="#97A4B1"/>
<path d="M120.915 500.182C123.345 500.182 125.468 500.653 127.284 501.594C129.123 502.513 130.535 503.848 131.52 505.599C132.527 507.328 133.03 509.353 133.03 511.673C133.03 513.993 132.527 516.007 131.52 517.714C130.535 519.421 129.123 520.735 127.284 521.654C125.468 522.551 123.345 523 120.915 523H113.462V500.182H120.915ZM120.915 519.947C123.585 519.947 125.632 519.224 127.055 517.78C128.477 516.335 129.189 514.3 129.189 511.673C129.189 509.025 128.477 506.956 127.055 505.468C125.632 503.98 123.585 503.235 120.915 503.235H117.205V519.947H120.915ZM135.492 513.873C135.492 512.056 135.864 510.447 136.608 509.047C137.374 507.646 138.403 506.562 139.694 505.796C141.008 505.008 142.452 504.614 144.028 504.614C145.451 504.614 146.687 504.899 147.738 505.468C148.811 506.015 149.664 506.705 150.299 507.536V504.91H154.075V523H150.299V520.308C149.664 521.161 148.8 521.873 147.705 522.442C146.611 523.011 145.363 523.295 143.962 523.295C142.408 523.295 140.986 522.902 139.694 522.114C138.403 521.304 137.374 520.187 136.608 518.765C135.864 517.32 135.492 515.689 135.492 513.873ZM150.299 513.938C150.299 512.691 150.036 511.607 149.511 510.688C149.008 509.769 148.34 509.068 147.508 508.587C146.676 508.105 145.779 507.865 144.816 507.865C143.853 507.865 142.956 508.105 142.124 508.587C141.292 509.047 140.614 509.736 140.088 510.655C139.585 511.553 139.333 512.625 139.333 513.873C139.333 515.12 139.585 516.215 140.088 517.156C140.614 518.097 141.292 518.819 142.124 519.323C142.977 519.804 143.875 520.045 144.816 520.045C145.779 520.045 146.676 519.804 147.508 519.323C148.34 518.841 149.008 518.141 149.511 517.222C150.036 516.28 150.299 515.186 150.299 513.938ZM163.357 507.963V517.977C163.357 518.655 163.51 519.148 163.817 519.454C164.145 519.739 164.692 519.881 165.458 519.881H167.757V523H164.802C163.116 523 161.825 522.606 160.928 521.818C160.03 521.03 159.582 519.75 159.582 517.977V507.963H157.447V504.91H159.582V500.412H163.357V504.91H167.757V507.963H163.357ZM187.786 513.512C187.786 514.19 187.742 514.803 187.655 515.35H173.833C173.942 516.795 174.478 517.955 175.442 518.83C176.405 519.706 177.587 520.144 178.987 520.144C181.001 520.144 182.424 519.301 183.255 517.616H187.294C186.747 519.279 185.751 520.647 184.306 521.72C182.883 522.77 181.11 523.295 178.987 523.295C177.258 523.295 175.704 522.912 174.325 522.146C172.968 521.358 171.896 520.264 171.108 518.863C170.342 517.441 169.959 515.799 169.959 513.938C169.959 512.078 170.331 510.447 171.075 509.047C171.841 507.624 172.903 506.529 174.26 505.763C175.638 504.997 177.214 504.614 178.987 504.614C180.695 504.614 182.216 504.986 183.551 505.731C184.886 506.475 185.926 507.525 186.67 508.882C187.414 510.218 187.786 511.761 187.786 513.512ZM183.879 512.33C183.857 510.951 183.365 509.845 182.402 509.014C181.439 508.182 180.246 507.766 178.823 507.766C177.532 507.766 176.426 508.182 175.507 509.014C174.588 509.824 174.041 510.929 173.866 512.33H183.879Z" fill="#97A4B1"/>
<path d="M112.215 395.542C112.215 393.309 112.729 391.306 113.758 389.534C114.808 387.761 116.22 386.382 117.993 385.397C119.788 384.39 121.747 383.887 123.87 383.887C126.3 383.887 128.455 384.488 130.338 385.692C132.242 386.874 133.621 388.56 134.475 390.748H129.977C129.386 389.545 128.565 388.647 127.514 388.056C126.464 387.465 125.249 387.17 123.87 387.17C122.36 387.17 121.014 387.509 119.832 388.187C118.65 388.866 117.72 389.84 117.041 391.11C116.384 392.379 116.056 393.856 116.056 395.542C116.056 397.227 116.384 398.705 117.041 399.974C117.72 401.244 118.65 402.228 119.832 402.929C121.014 403.607 122.36 403.947 123.87 403.947C125.249 403.947 126.464 403.651 127.514 403.06C128.565 402.469 129.386 401.572 129.977 400.368H134.475C133.621 402.557 132.242 404.242 130.338 405.424C128.455 406.606 126.3 407.197 123.87 407.197C121.725 407.197 119.766 406.705 117.993 405.72C116.22 404.713 114.808 403.323 113.758 401.55C112.729 399.777 112.215 397.774 112.215 395.542ZM142.598 382.705V407H138.856V382.705H142.598ZM146.265 397.873C146.265 396.056 146.637 394.447 147.381 393.047C148.147 391.646 149.176 390.562 150.467 389.796C151.78 389.008 153.225 388.614 154.801 388.614C156.224 388.614 157.46 388.899 158.511 389.468C159.583 390.015 160.437 390.705 161.072 391.536V388.91H164.847V407H161.072V404.308C160.437 405.161 159.572 405.873 158.478 406.442C157.384 407.011 156.136 407.295 154.735 407.295C153.181 407.295 151.759 406.902 150.467 406.114C149.176 405.304 148.147 404.187 147.381 402.765C146.637 401.32 146.265 399.689 146.265 397.873ZM161.072 397.938C161.072 396.691 160.809 395.607 160.284 394.688C159.78 393.769 159.113 393.068 158.281 392.587C157.449 392.105 156.552 391.865 155.589 391.865C154.626 391.865 153.728 392.105 152.897 392.587C152.065 393.047 151.386 393.736 150.861 394.655C150.358 395.553 150.106 396.625 150.106 397.873C150.106 399.12 150.358 400.215 150.861 401.156C151.386 402.097 152.065 402.819 152.897 403.323C153.75 403.804 154.648 404.045 155.589 404.045C156.552 404.045 157.449 403.804 158.281 403.323C159.113 402.841 159.78 402.141 160.284 401.222C160.809 400.28 161.072 399.186 161.072 397.938ZM176.33 407.295C174.907 407.295 173.627 407.044 172.488 406.54C171.372 406.015 170.486 405.315 169.829 404.439C169.172 403.542 168.822 402.546 168.778 401.451H172.653C172.718 402.218 173.079 402.863 173.736 403.389C174.415 403.892 175.257 404.144 176.264 404.144C177.315 404.144 178.125 403.947 178.694 403.553C179.285 403.137 179.58 402.612 179.58 401.977C179.58 401.298 179.252 400.795 178.595 400.467C177.96 400.138 176.943 399.777 175.542 399.383C174.185 399.011 173.079 398.65 172.226 398.3C171.372 397.949 170.628 397.413 169.993 396.691C169.38 395.969 169.074 395.016 169.074 393.835C169.074 392.871 169.359 391.996 169.928 391.208C170.497 390.398 171.307 389.763 172.357 389.304C173.43 388.844 174.655 388.614 176.034 388.614C178.092 388.614 179.744 389.14 180.992 390.19C182.261 391.219 182.94 392.631 183.027 394.425H179.285C179.219 393.616 178.891 392.97 178.3 392.488C177.709 392.007 176.91 391.766 175.903 391.766C174.918 391.766 174.163 391.952 173.638 392.324C173.112 392.696 172.85 393.189 172.85 393.802C172.85 394.283 173.025 394.688 173.375 395.016C173.725 395.345 174.152 395.607 174.655 395.804C175.159 395.98 175.903 396.209 176.888 396.494C178.201 396.844 179.274 397.205 180.105 397.577C180.959 397.928 181.692 398.453 182.305 399.153C182.918 399.854 183.235 400.784 183.257 401.944C183.257 402.973 182.973 403.892 182.404 404.702C181.835 405.512 181.025 406.146 179.974 406.606C178.945 407.066 177.731 407.295 176.33 407.295ZM193.868 407.295C192.445 407.295 191.165 407.044 190.026 406.54C188.91 406.015 188.024 405.315 187.367 404.439C186.71 403.542 186.36 402.546 186.316 401.451H190.191C190.256 402.218 190.617 402.863 191.274 403.389C191.953 403.892 192.795 404.144 193.802 404.144C194.853 404.144 195.663 403.947 196.232 403.553C196.823 403.137 197.118 402.612 197.118 401.977C197.118 401.298 196.79 400.795 196.133 400.467C195.498 400.138 194.481 399.777 193.08 399.383C191.723 399.011 190.617 398.65 189.764 398.3C188.91 397.949 188.166 397.413 187.531 396.691C186.918 395.969 186.612 395.016 186.612 393.835C186.612 392.871 186.896 391.996 187.466 391.208C188.035 390.398 188.844 389.763 189.895 389.304C190.968 388.844 192.193 388.614 193.572 388.614C195.63 388.614 197.282 389.14 198.53 390.19C199.799 391.219 200.478 392.631 200.565 394.425H196.823C196.757 393.616 196.429 392.97 195.838 392.488C195.247 392.007 194.448 391.766 193.441 391.766C192.456 391.766 191.701 391.952 191.176 392.324C190.65 392.696 190.388 393.189 190.388 393.802C190.388 394.283 190.563 394.688 190.913 395.016C191.263 395.345 191.69 395.607 192.193 395.804C192.697 395.98 193.441 396.209 194.426 396.494C195.739 396.844 196.812 397.205 197.643 397.577C198.497 397.928 199.23 398.453 199.843 399.153C200.456 399.854 200.773 400.784 200.795 401.944C200.795 402.973 200.511 403.892 199.942 404.702C199.372 405.512 198.563 406.146 197.512 406.606C196.483 407.066 195.269 407.295 193.868 407.295Z" fill="#97A4B1"/>
</svg>
